<svg xmlns="http://www.w3.org/2000/svg" width="12.204" height="9.789" viewBox="0 0 12.204 9.789"><defs><style>.a{fill:#fff;stroke:#fff;stroke-width:0.25px;}</style></defs><g transform="translate(0.125 0.125)"><path class="a" d="M11.9,55.947l-.447-2.97A1.735,1.735,0,0,0,9.741,51.5H2.2A1.735,1.735,0,0,0,.484,52.977C.394,53.573,0,56.143,0,56.3a1.734,1.734,0,0,0,.867,1.5,1.733,1.733,0,0,0,.867,3.234h8.473a1.733,1.733,0,0,0,.867-3.234,1.733,1.733,0,0,0,.83-1.858ZM.471,56.2.5,56.033a1.269,1.269,0,0,1,1.238-1h8.473a1.269,1.269,0,0,1,1.238,1l.025.163a1.352,1.352,0,0,1-1.355,1.375H1.826A1.354,1.354,0,0,1,.471,56.2ZM2.2,51.966H9.741A1.269,1.269,0,0,1,11,53.046l.286,1.9a1.725,1.725,0,0,0-1.074-.374H1.734a1.725,1.725,0,0,0-1.074.374l.286-1.9A1.269,1.269,0,0,1,2.2,51.966Zm9.275,7.339a1.269,1.269,0,0,1-1.267,1.267H1.734a1.267,1.267,0,0,1,0-2.535h8.473A1.269,1.269,0,0,1,11.474,59.305Z" transform="translate(0 -51.5)"/><path class="a" d="M57.674,226.076H51.843a.732.732,0,0,0,0,1.465h5.831a.732.732,0,1,0,0-1.465Zm0,1H51.843a.266.266,0,1,1,0-.532h5.831a.266.266,0,1,1,0,.532Z" transform="translate(-49.919 -222.005)"/><path class="a" d="M57.674,354.756H51.843a.732.732,0,1,0,0,1.465h5.831a.732.732,0,1,0,0-1.465Zm0,1H51.843a.266.266,0,0,1,0-.532h5.831a.266.266,0,0,1,0,.532Z" transform="translate(-49.919 -347.684)"/><path class="a" d="M392.585,223.172a.819.819,0,1,0-.819.819A.82.82,0,0,0,392.585,223.172Zm-.819.353a.353.353,0,1,1,.353-.353A.353.353,0,0,1,391.765,223.525Z" transform="translate(-381.828 -218.368)"/><path class="a" d="M390.946,351.853a.819.819,0,1,0,.819-.819A.82.82,0,0,0,390.946,351.853Zm1.172,0a.353.353,0,1,1-.353-.353A.353.353,0,0,1,392.118,351.853Z" transform="translate(-381.828 -344.048)"/><path class="a" d="M109.945,90.973h4.135a.233.233,0,0,0,0-.466h-4.135a.233.233,0,1,0,0,.466Z" transform="translate(-107.153 -89.597)"/><path class="a" d="M327.232,90.973h0A.233.233,0,1,0,327,90.74.233.233,0,0,0,327.233,90.973Z" transform="translate(-319.373 -89.597)"/></g></svg>